<svg width="12" height="20" viewBox="0 0 12 20" fill="none" xmlns="http://www.w3.org/2000/svg">
<path d="M4.03125 13.1943C4.03125 12.9349 3.82701 12.7604 3.5755 12.8047L0.549536 13.3382C0.297989 13.3826 0.09375 13.6292 0.09375 13.8885V19.6037C0.09375 19.863 0.297989 20.0376 0.549536 19.9933L3.5755 19.4598C3.82701 19.4155 4.03125 19.1689 4.03125 18.9095V13.1943Z" fill="white"/>
<path d="M11.9063 0.396486C11.9063 0.137112 11.702 -0.0374481 11.4505 0.00687849L8.42451 0.540362C8.17296 0.584718 7.96875 0.831305 7.96875 1.09068V6.80585C7.96875 7.06523 8.17296 7.23978 8.42451 7.19543L11.4505 6.66197C11.702 6.61762 11.9063 6.37103 11.9063 6.11166V0.396486Z" fill="white" fill-opacity="0.6"/>
<path d="M4.52446 1.73131C4.40763 1.47401 4.09398 1.3037 3.82445 1.35121L0.582351 1.92282C0.312818 1.97034 0.188875 2.21778 0.305701 2.47509L7.47612 18.2677C7.59294 18.525 7.9066 18.6953 8.17613 18.6478L11.4182 18.0762C11.6877 18.0287 11.8117 17.7812 11.6949 17.5239L4.52446 1.73131Z" fill="white"/>
</svg>
